<?xml version="1.0" encoding="UTF-8"?>
<!DOCTYPE svg PUBLIC "-//W3C//DTD SVG 1.1//EN" "http://www.w3.org/Graphics/SVG/1.1/DTD/svg11.dtd">
<svg version="1.1" xmlns="http://www.w3.org/2000/svg" xmlns:xlink="http://www.w3.org/1999/xlink" x="0" y="0" width="218" height="138" viewBox="0, 0, 218, 138">
  <g id="Ebene_x0020_1" transform="translate(-27.714, -84.473)">
    <path d="M27.714,84.473 L245.714,84.473 L245.714,222.473 L27.714,222.473 L27.714,84.473 z" fill="#FFFFFF"/>
    <g>
      <g id="_2852356129104">
        <path d="M124.584,113.624 C123.731,113.596 123.018,114.264 122.99,115.117 C122.988,115.15 122.988,115.184 122.99,115.218 L122.99,122.886 C119.289,119.915 113.882,120.505 110.911,124.206 C109.685,125.731 109.017,127.631 109.018,129.588 C108.937,134.331 112.716,138.242 117.459,138.322 C122.202,138.404 126.112,134.625 126.194,129.881 C126.196,129.784 126.196,129.686 126.194,129.588 L126.194,115.226 C126.207,114.795 126.036,114.38 125.726,114.082 C125.422,113.784 125.01,113.622 124.584,113.631 L124.584,113.624 z M122.566,131.656 C122.018,132.946 120.994,133.975 119.708,134.532 C118.36,135.103 116.838,135.103 115.49,134.532 C114.205,133.981 113.185,132.952 112.645,131.663 C112.081,130.33 112.081,128.826 112.645,127.493 C113.186,126.208 114.207,125.184 115.49,124.638 C116.838,124.068 118.36,124.068 119.708,124.638 C120.994,125.195 122.018,126.225 122.566,127.516 C123.13,128.843 123.13,130.343 122.566,131.671 L122.566,131.656 z M122.566,131.656 L122.566,131.656 L122.566,131.656 z" fill="#000000"/>
        <path d="M142.516,123.507 C139.161,120.154 133.722,120.157 130.369,123.512 C128.761,125.123 127.857,127.305 127.856,129.58 C127.776,134.323 131.555,138.233 136.298,138.315 C141.04,138.396 144.951,134.616 145.032,129.874 C145.034,129.776 145.034,129.679 145.032,129.58 C145.033,128.451 144.817,127.332 144.396,126.283 C143.963,125.24 143.324,124.297 142.516,123.507 L142.516,123.507 z M141.407,131.648 C141.133,132.285 140.742,132.865 140.255,133.358 C139.764,133.851 139.184,134.247 138.546,134.525 C137.199,135.095 135.678,135.095 134.33,134.525 C133.045,133.975 132.024,132.946 131.484,131.656 C130.92,130.323 130.92,128.818 131.484,127.485 C132.026,126.202 133.048,125.182 134.33,124.638 C135.678,124.068 137.199,124.068 138.546,124.638 C139.184,124.916 139.764,125.312 140.255,125.805 C140.742,126.299 141.133,126.878 141.407,127.516 C141.968,128.844 141.968,130.342 141.407,131.67 L141.407,131.648 z M141.407,131.648 L141.407,131.648 L141.407,131.648 z" fill="#000000"/>
        <path d="M178.025,122.586 C178.026,122.375 177.982,122.166 177.897,121.973 C177.81,121.787 177.692,121.618 177.549,121.472 C177.407,121.324 177.237,121.206 177.049,121.126 C176.85,121.044 176.636,121.002 176.419,121.003 C176.115,121.001 175.817,121.088 175.561,121.254 L166.392,127.22 L166.392,115.241 C166.4,114.812 166.23,114.399 165.923,114.099 C165.628,113.789 165.217,113.617 164.789,113.624 C163.905,113.618 163.185,114.33 163.179,115.213 C163.179,115.22 163.179,115.226 163.179,115.233 L163.179,136.549 C163.175,136.976 163.344,137.385 163.647,137.684 C163.945,137.995 164.359,138.167 164.789,138.16 C165.215,138.166 165.626,137.994 165.918,137.684 C166.222,137.386 166.392,136.976 166.387,136.549 L166.387,131.022 L168.257,129.795 L175.344,137.754 C175.631,138.03 176.017,138.179 176.415,138.167 C176.63,138.169 176.845,138.128 177.043,138.044 C177.232,137.966 177.404,137.85 177.545,137.702 C177.691,137.552 177.808,137.377 177.893,137.186 C177.978,136.992 178.021,136.784 178.02,136.572 C178.021,136.157 177.863,135.756 177.577,135.453 L170.988,128.031 L177.412,123.86 C177.826,123.574 178.059,123.089 178.025,122.586 z" fill="#000000"/>
        <path d="M151.418,125.77 C151.914,125.281 152.497,124.89 153.139,124.618 C153.802,124.336 154.518,124.193 155.238,124.198 C155.877,124.192 156.511,124.306 157.109,124.533 C157.707,124.774 158.261,125.113 158.748,125.535 C159.044,125.771 159.414,125.897 159.792,125.89 C160.224,125.909 160.643,125.745 160.949,125.44 C161.25,125.133 161.413,124.717 161.402,124.288 C161.407,123.822 161.205,123.378 160.849,123.077 C159.312,121.701 157.313,120.956 155.251,120.992 C150.507,120.992 146.662,124.837 146.662,129.581 C146.65,134.317 150.48,138.166 155.217,138.179 C157.284,138.184 159.284,137.442 160.849,136.09 C161.171,135.783 161.352,135.355 161.35,134.911 C161.378,134.058 160.709,133.344 159.857,133.315 C159.822,133.315 159.789,133.315 159.754,133.315 C159.389,133.317 159.034,133.435 158.74,133.651 C158.261,134.073 157.711,134.408 157.116,134.64 C156.518,134.865 155.884,134.977 155.245,134.97 C154.525,134.975 153.81,134.832 153.146,134.549 C152.505,134.278 151.922,133.887 151.426,133.398 C149.322,131.306 149.312,127.905 151.403,125.801 C151.41,125.793 151.418,125.785 151.426,125.778 L151.418,125.77 z M151.418,125.77 L151.418,125.77 L151.418,125.77 z" fill="#000000"/>
        <path d="M209.881,122.065 C209.571,121.774 209.201,121.552 208.799,121.414 C208.338,121.249 207.861,121.138 207.374,121.084 C206.894,121.025 206.41,120.995 205.925,120.993 C204.942,120.991 203.966,121.16 203.041,121.494 C202.136,121.824 201.289,122.302 200.538,122.906 L200.538,122.586 C200.502,121.7 199.756,121.011 198.871,121.046 C198.034,121.079 197.364,121.749 197.331,122.586 L197.331,136.573 C197.366,137.458 198.112,138.147 198.998,138.113 C199.834,138.08 200.505,137.409 200.538,136.573 L200.538,129.581 C200.533,128.858 200.676,128.142 200.959,127.478 C201.229,126.84 201.619,126.261 202.108,125.77 C202.599,125.282 203.18,124.891 203.817,124.618 C204.482,124.337 205.198,124.193 205.92,124.198 C206.638,124.191 207.351,124.321 208.021,124.581 C208.232,124.684 208.462,124.74 208.696,124.749 C208.912,124.752 209.126,124.709 209.325,124.627 C209.514,124.547 209.684,124.429 209.826,124.281 C209.968,124.135 210.085,123.966 210.171,123.78 C210.258,123.583 210.302,123.368 210.301,123.152 C210.317,122.749 210.16,122.359 209.87,122.078 L209.881,122.065 z M209.881,122.065 L209.881,122.065 L209.881,122.065 z" fill="#000000"/>
        <path d="M194.978,126.296 C193.613,123.107 190.488,121.032 187.02,121.014 C182.277,121.012 178.431,124.856 178.43,129.598 C178.43,129.599 178.43,129.6 178.43,129.601 C178.429,134.346 182.275,138.193 187.02,138.194 C189.08,138.195 191.072,137.455 192.632,136.109 C192.655,136.087 192.69,136.057 192.694,136.049 C192.835,135.936 192.957,135.803 193.058,135.653 C193.574,134.911 193.39,133.891 192.647,133.375 C192.025,132.971 191.207,133.045 190.667,133.554 C190.615,133.601 190.464,133.741 190.439,133.761 L190.417,133.781 C189.959,134.17 189.438,134.475 188.875,134.683 C188.279,134.892 187.651,134.996 187.02,134.988 C186.437,134.99 185.859,134.897 185.307,134.712 C184.77,134.532 184.264,134.272 183.805,133.938 C183.348,133.604 182.947,133.2 182.616,132.742 C182.278,132.273 182.019,131.753 181.85,131.2 L193.994,131.201 C194.42,131.21 194.832,131.047 195.135,130.747 C195.448,130.451 195.619,130.035 195.603,129.605 C195.613,128.474 195.4,127.351 194.975,126.301 L194.978,126.296 z M181.847,128.011 C182.008,127.458 182.262,126.936 182.599,126.469 C182.932,126.009 183.336,125.605 183.795,125.272 C184.26,124.939 184.772,124.678 185.315,124.498 C185.863,124.316 186.438,124.223 187.017,124.223 C187.592,124.223 188.164,124.315 188.709,124.498 C189.792,124.858 190.735,125.547 191.408,126.469 C191.751,126.935 192.014,127.457 192.184,128.011 L181.847,128.011 z" fill="#000000"/>
        <path d="M204.403,135.847 C203.789,135.856 203.299,136.362 203.309,136.975 C203.319,137.589 203.824,138.079 204.438,138.07 C205.048,138.06 205.536,137.561 205.533,136.951 C205.525,136.334 205.019,135.84 204.404,135.847 C204.404,135.847 204.404,135.847 204.403,135.847 L204.403,135.847 z M204.403,137.831 C203.917,137.854 203.505,137.477 203.483,136.991 C203.461,136.505 203.837,136.093 204.323,136.071 C204.809,136.049 205.221,136.425 205.244,136.912 C205.244,136.927 205.245,136.942 205.244,136.958 C205.261,137.424 204.897,137.814 204.432,137.831 C204.422,137.831 204.413,137.831 204.403,137.831 z" fill="#000000"/>
        <path d="M204.658,136.986 L204.658,136.97 C204.781,136.947 204.874,136.845 204.886,136.721 C204.891,136.625 204.851,136.532 204.778,136.47 C204.661,136.407 204.529,136.38 204.396,136.389 C204.254,136.387 204.112,136.399 203.973,136.425 L203.973,137.526 L204.223,137.526 L204.223,137.083 L204.343,137.083 C204.486,137.083 204.551,137.136 204.573,137.258 C204.588,137.352 204.617,137.442 204.659,137.526 L204.937,137.526 C204.893,137.439 204.865,137.347 204.854,137.251 C204.843,137.131 204.765,137.027 204.654,136.983 L204.658,136.986 z M204.35,136.903 L204.228,136.903 L204.228,136.585 C204.275,136.579 204.323,136.579 204.37,136.585 C204.53,136.585 204.606,136.653 204.606,136.753 C204.606,136.853 204.491,136.915 204.356,136.915 L204.35,136.903 z M204.35,136.903 L204.35,136.903 L204.35,136.903 z" fill="#000000"/>
        <path d="M106.076,117.231 C105.919,117.106 104.447,115.995 101.342,115.995 C100.523,115.997 99.704,116.068 98.897,116.205 C98.296,112.086 94.891,110.078 94.738,109.989 L93.905,109.508 L93.357,110.299 C92.671,111.362 92.169,112.533 91.875,113.764 C91.319,116.114 91.657,118.322 92.851,120.21 C91.409,121.013 89.095,121.212 88.627,121.229 L50.33,121.229 C49.329,121.231 48.518,122.039 48.513,123.039 C48.468,126.394 49.036,129.729 50.19,132.88 C51.51,136.339 53.472,138.888 56.026,140.448 C58.887,142.2 63.536,143.201 68.806,143.201 C71.186,143.209 73.562,142.994 75.903,142.558 C79.156,141.961 82.287,140.824 85.165,139.194 C87.537,137.821 89.672,136.072 91.486,134.019 C94.521,130.584 96.328,126.759 97.673,123.359 C97.853,123.359 98.033,123.359 98.208,123.359 C101.531,123.359 103.573,122.03 104.699,120.916 C105.448,120.206 106.033,119.34 106.411,118.38 L106.65,117.684 L106.076,117.231 z" fill="#000000"/>
        <path d="M53.88,120.108 L59.012,120.108 C59.26,120.108 59.46,119.907 59.46,119.66 L59.46,119.66 L59.46,115.088 C59.461,114.84 59.262,114.638 59.014,114.638 C59.013,114.638 59.012,114.638 59.012,114.638 L53.88,114.638 C53.633,114.638 53.432,114.839 53.432,115.086 C53.432,115.087 53.432,115.088 53.432,115.088 L53.432,119.659 C53.432,119.907 53.633,120.108 53.88,120.108 L53.88,120.108 z" fill="#000000"/>
        <path d="M60.952,120.108 L66.084,120.108 C66.331,120.108 66.532,119.907 66.532,119.66 L66.532,119.66 L66.532,115.088 C66.533,114.84 66.334,114.638 66.087,114.638 C66.086,114.638 66.085,114.638 66.084,114.638 L60.952,114.638 C60.703,114.638 60.502,114.839 60.502,115.088 L60.502,119.66 C60.503,119.908 60.705,120.108 60.952,120.108 z" fill="#000000"/>
        <path d="M68.132,120.108 L73.264,120.108 C73.512,120.108 73.712,119.907 73.712,119.66 L73.712,119.66 L73.712,115.088 C73.713,114.84 73.514,114.638 73.267,114.638 C73.266,114.638 73.265,114.638 73.264,114.638 L68.132,114.638 C67.884,114.638 67.684,114.839 67.684,115.086 C67.684,115.087 67.684,115.088 67.684,115.088 L67.684,119.659 C67.684,119.907 67.884,120.108 68.132,120.108 L68.132,120.108 z" fill="#000000"/>
        <path d="M75.227,120.108 L80.358,120.108 C80.606,120.108 80.808,119.908 80.809,119.66 L80.809,115.088 C80.809,114.839 80.607,114.638 80.358,114.638 L80.358,114.638 L75.227,114.638 C74.979,114.638 74.779,114.839 74.779,115.086 C74.779,115.087 74.779,115.088 74.779,115.088 L74.779,119.659 C74.779,119.907 74.979,120.108 75.227,120.108 L75.227,120.108 z" fill="#000000"/>
        <path d="M60.952,113.531 L66.084,113.531 C66.332,113.529 66.532,113.328 66.532,113.08 L66.532,108.509 C66.532,108.261 66.331,108.061 66.084,108.061 L66.084,108.061 L60.952,108.061 C60.705,108.061 60.503,108.261 60.502,108.509 L60.502,113.08 C60.503,113.328 60.704,113.529 60.952,113.531 z" fill="#000000"/>
        <path d="M68.132,113.531 L73.264,113.531 C73.512,113.529 73.712,113.328 73.712,113.08 L73.712,108.509 C73.712,108.261 73.511,108.061 73.264,108.061 L73.264,108.061 L68.132,108.061 C67.884,108.061 67.684,108.262 67.684,108.509 L67.684,108.509 L67.684,113.08 C67.684,113.328 67.884,113.529 68.132,113.531 z" fill="#000000"/>
        <path d="M75.227,113.531 L80.358,113.531 C80.607,113.529 80.808,113.328 80.809,113.08 L80.809,108.509 C80.808,108.261 80.606,108.061 80.358,108.061 L75.227,108.061 C74.979,108.061 74.779,108.262 74.779,108.509 L74.779,108.509 L74.779,113.08 C74.779,113.328 74.979,113.529 75.227,113.531 z" fill="#000000"/>
        <path d="M75.227,106.952 L80.358,106.952 C80.606,106.952 80.808,106.752 80.809,106.504 L80.809,101.93 C80.808,101.683 80.606,101.482 80.358,101.482 L75.227,101.482 C74.979,101.482 74.779,101.683 74.779,101.93 L74.779,101.93 L74.779,106.504 C74.779,106.752 74.979,106.952 75.227,106.952 z" fill="#000000"/>
        <path d="M82.384,120.108 L87.516,120.108 C87.764,120.108 87.965,119.908 87.966,119.66 L87.966,115.088 C87.966,114.839 87.765,114.638 87.516,114.638 L87.516,114.638 L82.384,114.638 C82.137,114.638 81.936,114.839 81.936,115.086 C81.936,115.087 81.936,115.088 81.936,115.088 L81.936,119.659 C81.936,119.907 82.137,120.108 82.384,120.108 z" fill="#000000"/>
      </g>
      <g>
        <g>
          <path d="M71.443,185.966 L71.443,200.12 C72.041,200.014 72.616,199.805 73.143,199.505 L84.791,192.773 C86.501,191.779 87.554,189.95 87.555,187.973 L87.554,174.541 C87.553,174.005 87.47,173.473 87.31,172.962 L74.647,180.306 C72.044,182.156 71.482,183.908 71.444,185.965 L71.443,185.966 z M71.443,185.966 L71.443,185.966 L71.443,185.966 z" fill="#FFC600"/>
          <path d="M91.929,170.283 L87.309,172.962 C87.465,173.469 87.553,173.999 87.553,174.542 L87.553,187.974 C87.553,189.949 86.494,191.788 84.791,192.774 L73.142,199.506 C72.609,199.816 72.033,200.009 71.444,200.12 L71.444,205.464 C72.267,205.346 73.063,205.072 73.786,204.659 L88.914,195.914 C91.027,194.685 92.33,192.424 92.331,189.979 L92.33,172.537 C92.33,171.77 92.19,171.017 91.928,170.283 L91.929,170.283 z M91.929,170.283 L91.929,170.283 L91.929,170.283 z" fill="#F6EB61"/>
          <path d="M70.381,181.517 C71.071,180.387 72.097,179.411 73.572,178.477 L86.317,171.084 C85.899,170.545 85.381,170.089 84.793,169.744 L73.144,163.011 C72.309,162.53 71.36,162.276 70.397,162.276 C69.431,162.276 68.481,162.53 67.645,163.013 L56.044,169.743 C55.446,170.096 54.919,170.563 54.497,171.116 L67.184,178.473 C68.668,179.412 69.694,180.389 70.383,181.518 L70.381,181.517 z M70.381,181.517 L70.381,181.517 L70.381,181.517 z" fill="#439879"/>
          <path d="M56.042,169.74 L67.644,163.012 C68.48,162.53 69.431,162.273 70.397,162.273 C71.36,162.273 72.308,162.528 73.143,163.008 L84.792,169.743 C85.393,170.089 85.901,170.555 86.318,171.084 L90.933,168.41 C90.39,167.676 89.703,167.059 88.914,166.601 L73.785,157.856 C72.754,157.26 71.581,156.947 70.39,156.947 C69.195,156.947 68.021,157.262 66.987,157.86 L51.919,166.599 C51.125,167.067 50.431,167.694 49.887,168.439 L54.496,171.113 C54.918,170.56 55.443,170.093 56.042,169.74 L56.042,169.74 z M56.042,169.74 L56.042,169.74 L56.042,169.74 z" fill="#28CDFB"/>
          <path d="M67.644,199.503 L56.042,192.774 C54.337,191.778 53.287,189.952 53.287,187.978 L53.287,174.537 C53.287,174.008 53.372,173.492 53.519,172.998 L48.894,170.318 C48.643,171.027 48.513,171.777 48.51,172.529 L48.51,189.987 C48.511,192.428 49.811,194.686 51.92,195.914 L66.986,204.655 C67.701,205.069 68.485,205.334 69.319,205.461 L69.319,200.113 C68.732,200.006 68.164,199.798 67.645,199.503 L67.644,199.503 z M67.644,199.503 L67.644,199.503 L67.644,199.503 z" fill="#FDD757"/>
          <path d="M66.097,180.292 L53.518,172.999 C53.371,173.494 53.286,174.009 53.286,174.536 L53.286,187.979 C53.286,189.952 54.342,191.789 56.042,192.774 L67.645,199.504 C68.171,199.808 68.738,200.003 69.319,200.113 L69.319,185.962 C69.282,183.908 68.721,182.158 66.097,180.292 z" fill="#EC8B00"/>
        </g>
        <g>
          <path d="M224.917,192.934 L220.705,192.934 L220.705,190.577 L220.637,190.577 C220.061,191.33 219.302,191.951 218.359,192.431 C217.439,192.905 216.448,193.235 215.426,193.405 L214.788,193.469 C214.575,193.489 214.361,193.5 214.148,193.5 C212.675,193.5 211.34,193.243 210.145,192.728 C208.994,192.248 207.957,191.523 207.107,190.608 C206.345,189.763 205.748,188.781 205.349,187.715 C204.939,186.626 204.726,185.47 204.726,184.306 C204.726,184.29 204.726,184.274 204.726,184.259 C204.726,183.043 204.917,181.922 205.297,180.894 C205.677,179.868 206.302,178.904 207.178,178.002 C208.144,176.975 209.22,176.215 210.404,175.724 C211.588,175.232 212.883,174.985 214.287,174.985 C215.598,174.985 216.807,175.241 217.91,175.755 C219.009,176.264 219.97,177.037 220.705,178.002 L220.705,175.518 L224.917,175.518 L224.917,192.934 z M220.568,184.196 C220.568,182.749 220.055,181.53 219.031,180.532 C218.008,179.537 216.679,179.051 215.046,179.072 C213.366,179.051 211.991,179.553 210.921,180.58 C209.852,181.608 209.316,182.886 209.316,184.415 C209.316,185.839 209.875,187.04 210.991,188.014 C212.107,188.988 213.436,189.466 214.976,189.445 C216.632,189.466 217.979,188.973 219.014,187.968 C220.049,186.962 220.568,185.715 220.568,184.228 L220.568,184.196 z" fill="#2A506F"/>
          <path d="M184.849,175.518 L189.093,175.518 L189.093,177.121 L189.163,177.121 C189.692,176.473 190.388,175.97 191.252,175.612 C192.113,175.257 193.03,175.044 193.96,174.985 L194.649,174.984 C194.741,174.984 194.834,174.997 194.926,175.016 C195.847,175.079 196.754,175.303 197.6,175.676 C198.465,176.053 199.206,176.547 199.827,177.152 C199.918,177.237 200.005,177.317 200.085,177.389 C200.166,177.462 200.239,177.552 200.31,177.657 C201.045,178.6 201.482,179.606 201.62,180.674 C201.759,181.743 201.827,182.833 201.827,183.943 L201.827,192.934 L197.238,192.934 L197.238,183.912 C197.238,183.618 197.225,183.325 197.204,183.032 C197.16,182.581 197.079,182.133 196.963,181.695 C196.853,181.279 196.677,180.88 196.445,180.517 C196.128,180.083 195.706,179.737 195.219,179.511 C194.718,179.264 194.172,179.114 193.616,179.071 L193.185,179.072 C193.097,179.073 193.009,179.083 192.924,179.103 C192.394,179.164 191.876,179.328 191.371,179.59 C190.899,179.823 190.494,180.175 190.198,180.612 C189.969,180.948 189.796,181.34 189.68,181.79 C189.565,182.24 189.496,182.697 189.473,183.157 C189.449,183.431 189.439,183.703 189.439,183.975 L189.439,192.934 L184.849,192.934 L184.849,175.518 z" fill="#2A506F"/>
          <path d="M166.853,185.516 C167.187,186.53 167.865,187.397 168.768,187.967 C169.7,188.575 170.739,188.88 171.891,188.88 C172.764,188.88 173.586,188.744 174.357,188.47 C175.129,188.198 175.733,187.831 176.171,187.37 L181.244,187.339 C180.668,188.91 179.502,190.236 177.741,191.314 C175.982,192.394 174.088,192.934 172.063,192.934 C169.28,192.934 166.904,192.048 164.937,190.277 C162.97,188.507 161.985,186.353 161.985,183.817 C161.985,181.24 162.963,179.028 164.92,177.184 C166.874,175.341 169.278,174.418 172.132,174.418 C174.869,174.418 177.188,175.332 179.087,177.16 C180.984,178.989 181.933,181.115 181.933,183.541 C181.933,183.812 181.914,184.078 181.881,184.339 C181.847,184.6 181.805,184.857 181.759,185.106 C181.737,185.191 181.72,185.264 181.709,185.327 C181.698,185.388 181.693,185.452 181.693,185.514 C181.693,185.514 181.693,185.515 181.693,185.516 L172.339,185.516 L166.853,185.516 z M177.255,182.372 C176.888,181.344 176.221,180.538 175.254,179.952 C174.306,179.377 173.217,179.071 172.107,179.071 C172.087,179.071 172.066,179.071 172.045,179.071 L171.768,179.072 C170.668,179.133 169.6,179.471 168.663,180.053 C167.696,180.644 167.053,181.417 166.73,182.372 L177.255,182.372 z" fill="#2A506F"/>
          <path d="M154.479,192.934 L159.069,192.934 L159.069,169.703 L154.479,169.704 L154.479,192.934 z" fill="#2A506F"/>
          <path d="M151.063,192.934 L146.852,192.934 L146.852,190.577 L146.784,190.577 C146.208,191.33 145.449,191.951 144.505,192.431 C143.585,192.904 142.593,193.235 141.572,193.405 L140.935,193.469 C140.723,193.49 140.509,193.5 140.296,193.5 C138.823,193.5 137.487,193.243 136.293,192.729 C135.141,192.248 134.105,191.522 133.256,190.608 C132.494,189.764 131.895,188.78 131.496,187.714 C131.087,186.627 130.875,185.472 130.875,184.308 C130.875,184.292 130.875,184.275 130.875,184.258 C130.875,183.043 131.064,181.922 131.443,180.894 C131.824,179.868 132.451,178.903 133.325,178.002 C134.29,176.975 135.365,176.215 136.551,175.724 C137.736,175.231 139.029,174.984 140.434,174.984 C141.745,174.984 142.954,175.241 144.057,175.754 C145.157,176.264 146.118,177.037 146.852,178.002 L146.852,175.518 L151.063,175.518 L151.063,192.934 z M146.714,184.196 C146.714,182.749 146.202,181.53 145.178,180.532 C144.155,179.537 142.826,179.051 141.193,179.072 C139.513,179.051 138.137,179.553 137.069,180.58 C135.998,181.608 135.463,182.886 135.463,184.415 C135.463,185.839 136.021,187.04 137.137,188.014 C138.253,188.988 139.583,189.466 141.123,189.445 C142.781,189.466 144.126,188.973 145.161,187.968 C146.197,186.962 146.714,185.715 146.714,184.228 L146.714,184.196 z" fill="#2A506F"/>
          <path d="M108.925,169.703 L113.515,169.703 L113.515,177.341 L113.583,177.341 C114.09,176.672 114.762,176.153 115.603,175.786 C116.443,175.42 117.312,175.172 118.209,175.047 C118.625,175.005 119.048,174.984 119.466,174.984 C119.473,174.984 119.48,174.984 119.486,174.984 C122.293,174.984 124.593,175.917 126.388,177.781 C128.181,179.647 129.079,181.805 129.079,184.258 C129.079,184.614 129.056,184.986 129.011,185.373 C128.965,185.761 128.882,186.148 128.769,186.521 C128.583,187.284 128.302,188.025 127.942,188.722 C127.591,189.406 127.15,190.042 126.63,190.608 C125.767,191.559 124.688,192.299 123.489,192.762 C122.265,193.248 120.956,193.5 119.638,193.5 C119.635,193.5 119.628,193.5 119.625,193.5 C118.313,193.5 117.1,193.273 115.984,192.824 C114.866,192.373 113.941,191.636 113.206,190.608 L113.136,190.576 L113.136,192.933 L108.924,192.934 L108.924,169.703 L108.925,169.703 z M114.964,180.47 C113.814,181.403 113.239,182.593 113.239,184.038 C113.239,185.568 113.767,186.852 114.826,187.888 C115.885,188.928 117.277,189.445 119.003,189.445 C120.635,189.445 121.957,188.951 122.971,187.962 C123.981,186.976 124.489,185.745 124.489,184.274 C124.489,182.824 123.981,181.589 122.97,180.57 C121.957,179.55 120.634,179.039 119.001,179.039 C117.459,179.061 116.115,179.539 114.964,180.47 L114.964,180.47 z" fill="#2A506F"/>
        </g>
      </g>
    </g>
  </g>
</svg>
