<?xml version="1.0" encoding="UTF-8"?>
<!DOCTYPE svg PUBLIC "-//W3C//DTD SVG 1.1//EN" "http://www.w3.org/Graphics/SVG/1.1/DTD/svg11.dtd">
<!-- Creator: Corel DESIGNER 2019 (64-Bit) -->
<svg xmlns="http://www.w3.org/2000/svg" xml:space="preserve" width="26px" height="31px" version="1.1" style="shape-rendering:geometricPrecision; text-rendering:geometricPrecision; image-rendering:optimizeQuality; fill-rule:evenodd; clip-rule:evenodd"
viewBox="0 0 1.84 2.21"
 xmlns:xlink="http://www.w3.org/1999/xlink"
 xmlns:xodm="http://www.corel.com/coreldraw/odm/2003">
 <defs>
  <style type="text/css">
   <![CDATA[
    .fil3 {fill:black}
    .fil2 {fill:#B3B3B3}
    .fil4 {fill:black;fill-rule:nonzero}
    .fil1 {fill:black;fill-rule:nonzero}
    .fil0 {fill:white;fill-rule:nonzero}
   ]]>
  </style>
 </defs>
 <g id="layer1">
  <metadata id="CorelCorpID_0Corel-Layer"/>
  <g id="security_icon">
   <g id="shield">
    <path class="fil0" d="M0.96 0.07c0.13,0.11 0.22,0.17 0.34,0.22 0.11,0.05 0.24,0.08 0.44,0.11 0.02,0 0.04,0.02 0.04,0.05 0.01,0.13 0.01,0.25 0.01,0.36l0 0.09c0,0.28 -0.08,0.53 -0.22,0.74 -0.14,0.21 -0.36,0.38 -0.63,0.5 -0.01,0.01 -0.03,0.01 -0.04,0 -0.28,-0.12 -0.49,-0.29 -0.63,-0.5 -0.15,-0.21 -0.22,-0.46 -0.22,-0.74l0 -0.09c0,-0.12 0,-0.23 0.01,-0.36 0,-0.03 0.02,-0.05 0.04,-0.05 0.2,-0.03 0.33,-0.06 0.44,-0.11 0.11,-0.05 0.21,-0.11 0.34,-0.22 0.01,-0.01 0.03,-0.01 0.04,-0.01l0.01 0c0.01,0 0.02,0.01 0.03,0.01z"/>
    <path class="fil1" d="M0.96 0.01c0.14,0.11 0.24,0.18 0.36,0.23 0.12,0.05 0.26,0.08 0.46,0.11 0.03,0.01 0.05,0.03 0.05,0.06 0.01,0.14 0.01,0.26 0.01,0.38l0 0.1c0,0.29 -0.08,0.56 -0.23,0.78 -0.15,0.22 -0.38,0.4 -0.67,0.53 -0.01,0.01 -0.03,0.01 -0.04,0 -0.29,-0.13 -0.52,-0.31 -0.67,-0.53 -0.15,-0.22 -0.23,-0.49 -0.23,-0.78l0 -0.1c0,-0.12 0,-0.24 0.01,-0.38 0,-0.03 0.02,-0.05 0.04,-0.06 0.21,-0.03 0.35,-0.06 0.47,-0.11 0.12,-0.05 0.22,-0.12 0.36,-0.23 0.01,-0.01 0.03,-0.01 0.04,-0.01l0.01 0c0.01,0 0.02,0.01 0.03,0.01zm0.32 0.33c-0.13,-0.05 -0.23,-0.12 -0.36,-0.22 -0.13,0.1 -0.24,0.17 -0.36,0.22 -0.12,0.05 -0.25,0.09 -0.44,0.12 -0.01,0.12 -0.01,0.23 -0.01,0.33l0 0.1c0,0.27 0.07,0.51 0.21,0.72 0.14,0.2 0.34,0.36 0.6,0.48 0.26,-0.12 0.46,-0.28 0.6,-0.48 0.14,-0.21 0.21,-0.45 0.21,-0.72l0 -0.1c0,-0.1 0,-0.21 -0.01,-0.33 -0.19,-0.03 -0.32,-0.06 -0.44,-0.12z"/>
    <path class="fil2" d="M0.92 0.25l0 0c0.23,0.18 0.35,0.24 0.7,0.29 0,0.15 0,0.27 0.01,0.39 0,0.46 -0.25,0.83 -0.71,1.03l0 -1.71z"/>
   </g>
   <g id="excl_mark">
    <circle class="fil3" cx="0.92" cy="1.44" r="0.11"/>
    <path class="fil4" d="M0.97 1.25c0,0.01 -0.01,0.02 -0.02,0.03 -0.01,0 -0.02,0.01 -0.03,0.01 -0.01,0 -0.03,-0.01 -0.04,-0.01 -0.01,-0.01 -0.01,-0.02 -0.02,-0.03l-0.07 -0.47c0,-0.02 0.01,-0.05 0.02,-0.07 0.01,-0.01 0.03,-0.03 0.05,-0.04 0.02,-0.01 0.04,-0.01 0.06,-0.01 0.02,0 0.04,0 0.06,0.01 0.02,0.01 0.04,0.03 0.05,0.04 0.01,0.02 0.02,0.05 0.02,0.07l-0.08 0.47z"/>
   </g>
  </g>
 </g>
</svg>
